<svg width="292" height="56" viewBox="0 0 292 56" fill="none" xmlns="http://www.w3.org/2000/svg">
<path d="M39.6041 1.1087C37.6948 1.22829 35.8805 1.98403 34.4505 3.2554V0.591187H22.2851V3.14039C20.7055 1.74241 18.6444 1.01383 16.5376 1.1087H0.617188C0.617188 15.6948 0.617188 30.5108 0.617188 44.8669C1.80499 46.7836 3.05027 48.5661 4.25724 50.3678L4.56377 50.847H11.3841C15.0024 50.694 18.621 51.1409 22.0935 52.1695C23.982 52.9413 25.8021 53.871 27.5344 54.9487L28.0325 55.2362C28.0325 52.0353 28.0325 48.7961 28.0325 45.6527H28.8372V55.2362L30.025 54.5846C31.4748 53.6933 33.0164 52.9607 34.6229 52.3995C38.3444 51.2587 42.2272 50.7343 46.1178 50.847H51.5204C53.2064 48.8345 54.6815 46.9178 56.195 45.0011V1.1087H39.6041ZM31.0978 1.53037L28.3965 6.13044L32.9562 3.4279V8.85215C31.4427 7.97047 29.91 7.05046 28.3965 6.13044C29.297 7.68297 30.1974 9.19716 31.0978 10.7305H25.6378C26.5382 9.19716 27.4578 7.68297 28.3965 6.13044C27.4578 4.59708 26.4807 3.08289 25.6378 1.53037H31.0978ZM23.7411 3.44707L28.3582 6.14961C26.7872 7.06962 25.2737 8.06631 23.7411 8.87132V3.44707ZM55.3904 44.1194C53.8003 44.2344 52.1718 44.3111 50.5817 44.3877C46.8339 44.4716 43.0988 44.8561 39.4125 45.5377C35.7353 46.255 32.289 47.8605 29.3736 50.2145V45.0011H27.4578V50.1762C23.836 47.4448 19.5874 45.6655 15.1008 45.0011C10.5749 44.3154 5.99788 44.0268 1.42183 44.1385V1.97121H16.7484C18.7912 2.0045 20.7415 2.82896 22.1893 4.27125V10.9605L28.3774 13.5864L34.3547 10.9605V4.30958C35.706 3.05659 37.4004 2.23569 39.2209 1.95204H55.3521L55.3904 44.1194Z" fill="white"/>
<path d="M22.1895 43.5061H34.5273V15.7906H22.1895V43.5061ZM33.6844 35.3218L32.5349 34.3443V27.5017L33.6844 28.3833V35.3218ZM31.5578 33.5968L30.0635 32.3126V25.6808L31.5578 26.8308V33.5968ZM29.278 31.5842L28.3967 30.8367L27.4196 31.6417V25.0291L28.3584 24.3199L29.278 25.0291V31.5842ZM26.5575 32.3701L25.0632 33.6351V26.8117L26.5575 25.6808V32.3701ZM24.2011 34.2868L23.0516 35.2643V28.345L24.2011 27.4633V34.2868ZM33.6652 16.5765V27.2142L28.3584 23.1508L23.0516 27.1758V16.6532L33.6652 16.5765Z" fill="white"/>
<path d="M36.1953 11.4014H44.1268C43.1114 13.7398 41.5979 17.0365 40.2952 19.9882L40.0461 20.5058C38.6476 23.6108 37.1915 26.8309 36.2145 28.9584V29.0542V39.9027H53.4568V36.5293L53.2269 36.3952C50.3149 34.881 47.1921 33.2135 43.8969 31.4501C45.124 30.221 46.2336 28.8799 47.2113 27.4442C48.4628 25.6497 49.5102 23.7211 50.334 21.6941C52.0539 17.4778 52.7117 12.9034 52.2499 8.37306V7.97055H36.1953V11.4014ZM46.215 8.77556H46.33V27.1184C45.7351 27.9327 45.0956 28.7134 44.4142 29.4567V12.6856C44.6632 12.1298 44.8931 11.6123 45.0847 11.1523L46.215 8.77556ZM42.824 31.2393L42.6899 31.3734L41.8278 32.1593V18.7424L43.7436 14.7173V30.4726C43.3605 30.6642 43.0539 30.9709 42.824 31.2393ZM40.8124 20.8699L40.9657 20.5633V32.9068L39.912 33.7885L39.1265 34.4401V24.6075L40.8124 20.8699ZM38.2644 26.5242V35.111L37.0574 36.031V29.2267L38.2644 26.5242ZM52.633 37.066V38.9827H37.0574V37.066C37.4789 36.7593 38.9733 35.6285 40.4676 34.421C41.9619 33.2135 42.7474 32.5043 43.188 32.0443L52.633 37.066ZM47.1921 8.77556H49.1079V22.365C48.5584 23.5561 47.9179 24.7032 47.1921 25.7958V8.77556ZM49.8934 20.1799V8.77556H51.3494C51.6933 12.6376 51.1966 16.5283 49.8934 20.1799ZM37.0574 8.77556H45.2763L44.51 10.5389H37.0574V8.77556Z" fill="white"/>
<path d="M16.5757 11.8806C17.6123 11.5319 18.7009 11.3633 19.7943 11.3822H20.2541V7.89386H4.29532V8.29637C3.79872 12.8586 4.45756 17.4726 6.21113 21.7132C7.47981 25.2053 9.5235 28.364 12.1885 30.9517C11.3621 32.5824 10.1112 33.9598 8.56759 34.9385C6.94205 35.7995 5.18928 36.3948 3.37572 36.7018H3.01172V39.8452H20.2541V29.0542V28.9584C19.3345 26.8308 17.8785 23.6108 16.4224 20.5057L16.2309 20.0841C15.5603 18.589 14.8323 17.0173 14.1618 15.5415C14.2515 14.7831 14.5137 14.0553 14.9281 13.4139C15.3115 12.7494 15.8855 12.2152 16.5757 11.8806ZM11.8628 12.5898V29.4184C11.2085 28.7243 10.6005 27.988 10.0428 27.2142V8.77554H10.196L11.2306 11.1522L11.8628 12.5898ZM7.36062 8.75638H9.18065V25.8341C8.49349 24.7019 7.88537 23.5235 7.36062 22.3074V8.75638ZM5.0808 8.75638H6.49851V20.0841C5.20105 16.4646 4.717 12.6035 5.0808 8.77554V8.75638ZM3.87384 39.0019V37.4877C5.64868 37.1296 7.36424 36.523 8.96991 35.686C10.6023 34.65 11.9259 33.1935 12.8015 31.4692C13.587 32.2551 14.8898 33.5201 16.001 34.4401C17.457 35.6476 18.9896 36.7977 19.4111 37.1043V39.021L3.87384 39.0019ZM19.3536 36.0118L18.1467 35.0918V26.4475L19.392 29.2267L19.3536 36.0118ZM17.2462 24.5116V34.4018L16.4991 33.7884L15.4262 32.8493V20.4866L15.5986 20.8699L17.2462 24.5116ZM14.5449 18.5699V31.9867L12.7441 30.2042V14.5256L14.5449 18.5699ZM13.5104 14.1231C12.9548 12.8964 12.4375 11.7464 12.0352 10.8072L11.1348 8.77554H19.3536V10.5006C18.2806 10.5046 17.2167 10.6993 16.2117 11.0756C15.3583 11.4193 14.6345 12.0228 14.1426 12.8006C13.8626 13.2048 13.6491 13.6513 13.5104 14.1231Z" fill="white"/>
<path d="M68.9169 11.2865V6.16888C68.9512 5.81832 68.9512 5.46525 68.9169 5.1147C68.8266 4.81723 68.6285 4.56428 68.3613 4.40552H72.193C71.9648 4.55047 71.79 4.76575 71.6949 5.01886C71.596 5.38086 71.5508 5.75542 71.5607 6.13055V10.9031C71.5537 11.2577 71.6396 11.6079 71.8098 11.919C71.916 12.1053 72.0738 12.2569 72.2641 12.3555C72.4545 12.4541 72.6693 12.4956 72.8827 12.4748C73.15 12.494 73.4158 12.4207 73.6356 12.2672C73.8553 12.1136 74.0156 11.8892 74.0896 11.6315C74.2299 11.1266 74.2881 10.6024 74.262 10.0789V6.07304C74.3032 5.76134 74.3032 5.44557 74.262 5.13386C74.187 4.82449 73.9946 4.55644 73.7256 4.38635H77.5572C77.3259 4.55309 77.1519 4.78745 77.0591 5.0572C76.9771 5.34371 76.9384 5.64089 76.9442 5.93888V12.609C76.9333 12.8774 76.979 13.1452 77.0783 13.3948C77.1862 13.5991 77.3531 13.766 77.5572 13.874H74.2237V12.724C73.8984 13.2284 73.4224 13.6173 72.8635 13.8357C72.4344 13.9942 71.9798 14.0722 71.5224 14.0657C70.9601 14.0648 70.4116 13.8908 69.9515 13.5673C69.6041 13.3023 69.3278 12.9552 69.1472 12.5572C68.9667 12.1591 68.8876 11.7226 68.9169 11.2865Z" fill="white"/>
<path d="M79.0715 12.1489V6.66719C79.0977 6.21943 79.0392 5.77074 78.899 5.34467C78.7364 4.98097 78.5092 4.64978 78.2285 4.36716H81.2555L85.681 10.2323V6.26469C85.7195 5.96564 85.7195 5.66289 85.681 5.36384C85.603 4.99201 85.4163 4.65177 85.1446 4.38632H87.9609C87.7384 4.60789 87.5682 4.87638 87.4628 5.17217C87.3623 5.46853 87.3105 5.77924 87.3095 6.09218V14.2381C86.8207 14.2011 86.3447 14.0641 85.9109 13.8356C85.2066 13.5394 84.5923 13.0636 84.1292 12.4556L80.7957 7.98972V12.1873C80.7834 12.5279 80.8421 12.8673 80.9681 13.184C81.0748 13.4466 81.2384 13.6822 81.4471 13.874H78.4201C78.6314 13.6999 78.796 13.476 78.899 13.2223C79.0302 12.8803 79.0889 12.5148 79.0715 12.1489Z" fill="white"/>
<path d="M89.0333 12.0914V6.34132C89.0877 5.92782 89.0877 5.50896 89.0333 5.09546C88.9442 4.82891 88.7689 4.59962 88.5352 4.44379H92.3668C92.1396 4.61472 91.9666 4.84767 91.8687 5.11463C91.794 5.4932 91.7619 5.87894 91.7729 6.26465V12.2447C91.7548 12.6253 91.7936 13.0065 91.8878 13.3756C91.9934 13.6118 92.1584 13.8165 92.3668 13.9698H88.5352C88.7931 13.7882 88.9821 13.5248 89.0716 13.2223C89.0937 12.8449 89.0808 12.4664 89.0333 12.0914Z" fill="white"/>
<path d="M95.6234 11.6698L93.4968 5.91968C93.3819 5.57468 93.3052 5.36384 93.2669 5.26801C93.1356 4.97657 92.954 4.71056 92.7305 4.48216H96.0257L96.2556 5.44051L98.3247 11.4398L100.049 6.18802C100.049 6.18802 100.049 6.03468 100.164 5.84301C100.184 5.68392 100.184 5.52293 100.164 5.36384C100.169 5.16993 100.123 4.97808 100.03 4.808C99.8929 4.62372 99.7161 4.47298 99.5125 4.36716H102.118L98.7845 14.219L97.1369 13.644C96.767 13.4309 96.4428 13.1469 96.1831 12.808C95.9234 12.4692 95.7331 12.0824 95.6234 11.6698Z" fill="white"/>
<path d="M103.018 12.4173V6.07304C103.06 5.74854 103.06 5.42003 103.018 5.09553C102.942 4.80175 102.757 4.54802 102.501 4.38635H107.29H107.923H108.153V6.51389C107.992 6.28865 107.774 6.11096 107.521 5.99962C107.268 5.88827 106.99 5.84742 106.716 5.88138H105.7V8.25808H106.869C107.115 8.2734 107.363 8.24085 107.597 8.16225V10.1939C107.57 10.104 107.523 10.0213 107.46 9.95164C107.397 9.88202 107.32 9.82729 107.233 9.79144C107.038 9.71299 106.83 9.6739 106.62 9.67644H105.7V12.4173H106.064C106.43 12.4925 106.802 12.531 107.175 12.5323C107.577 12.5388 107.977 12.4872 108.363 12.379C108.748 12.2898 109.088 12.0654 109.321 11.7465L108.746 13.9123H102.443C102.557 13.8575 102.658 13.7799 102.741 13.6843C102.823 13.5886 102.885 13.4771 102.922 13.3565C103.009 13.0516 103.042 12.7336 103.018 12.4173Z" fill="white"/>
<path d="M113.115 9.79136V12.4172C113.106 12.7185 113.158 13.0186 113.269 13.2989C113.377 13.5031 113.544 13.6701 113.748 13.7781H109.916C110.027 13.7245 110.127 13.6495 110.209 13.5575C110.291 13.4654 110.354 13.358 110.395 13.2414C110.475 12.9872 110.514 12.722 110.51 12.4556V5.9388C110.55 5.62061 110.55 5.29864 110.51 4.98045C110.421 4.72899 110.244 4.5181 110.012 4.38627H114.744C115.44 4.36568 116.12 4.59707 116.66 5.03795C116.936 5.27182 117.154 5.56668 117.297 5.89928C117.44 6.23189 117.504 6.59317 117.483 6.95465C117.488 7.32 117.389 7.67912 117.196 7.98967C116.868 8.55005 116.372 8.99273 115.778 9.25469L117.694 12.4172L118.154 13.0881C118.368 13.381 118.619 13.6451 118.901 13.8739L117.273 13.9889H116.468C116.165 14.0021 115.863 13.943 115.587 13.8164C115.331 13.6267 115.127 13.3764 114.993 13.0881L113.115 9.79136ZM113.115 9.02468C113.553 8.97492 113.956 8.76294 114.246 8.43051C114.532 8.11644 114.69 7.70569 114.686 7.28049C114.707 6.88655 114.585 6.49836 114.342 6.18797C114.204 6.03122 114.032 5.90821 113.84 5.82844C113.647 5.74868 113.438 5.7143 113.23 5.72796H113.115V9.02468Z" fill="white"/>
<path d="M119.342 13.5481L118.863 11.4589C119.29 11.8212 119.776 12.1066 120.3 12.3023C120.814 12.4985 121.359 12.6023 121.909 12.6089C122.275 12.6233 122.637 12.5441 122.963 12.3789C123.11 12.3151 123.238 12.2146 123.336 12.0871C123.433 11.9596 123.496 11.8094 123.519 11.6506C123.508 11.4364 123.445 11.2281 123.335 11.0442C123.224 10.8604 123.07 10.7065 122.886 10.5964C122.475 10.3487 122.046 10.1309 121.603 9.94473C120.875 9.67677 120.219 9.24377 119.687 8.67971C119.262 8.13268 119.039 7.45567 119.055 6.76301C119.07 6.37937 119.177 6.00499 119.367 5.67143C119.557 5.33787 119.825 5.05488 120.147 4.84632C120.911 4.37565 121.798 4.1422 122.695 4.17547C123.065 4.14557 123.436 4.14557 123.806 4.17547C124.246 4.24042 124.677 4.3562 125.09 4.52048V6.22634C124.746 6.01463 124.379 5.8411 123.998 5.70883C123.69 5.59935 123.366 5.54107 123.04 5.53633C122.746 5.50296 122.451 5.58388 122.216 5.76232C121.98 5.94075 121.823 6.203 121.775 6.49467C121.775 6.87801 122.101 7.22302 122.772 7.52969L123.71 7.91303C124.458 8.24344 125.116 8.74975 125.626 9.38889C125.935 9.83262 126.096 10.3625 126.086 10.9031V11.2098C126.056 11.6699 125.912 12.1154 125.668 12.5066C125.424 12.8979 125.087 13.2227 124.687 13.4523C123.9 13.8764 123.014 14.0816 122.12 14.0465C121.618 14.0544 121.116 14.0029 120.626 13.8931C120.188 13.819 119.758 13.7035 119.342 13.5481Z" fill="white"/>
<path d="M127.215 12.0914V6.34132C127.256 5.92708 127.256 5.50971 127.215 5.09546C127.117 4.82821 126.935 4.59967 126.697 4.44379H130.529C130.308 4.62088 130.136 4.85192 130.031 5.11463C129.988 5.49678 129.988 5.8825 130.031 6.26465V12.2447C130.013 12.6253 130.051 13.0065 130.146 13.3756C130.251 13.6118 130.416 13.8165 130.625 13.9698H126.793C127.062 13.7997 127.254 13.5316 127.329 13.2223C127.326 12.8426 127.288 12.464 127.215 12.0914Z" fill="white"/>
<path d="M133.098 12.0531V5.95799H132.677H132.409C132.092 5.95676 131.779 6.02206 131.489 6.14966C131.187 6.26584 130.898 6.41361 130.627 6.5905L131.183 4.30963H131.451H138.175L137.658 6.49466C137.61 6.38284 137.54 6.28234 137.451 6.19976C137.361 6.11719 137.256 6.05439 137.141 6.01549C136.892 5.91325 136.625 5.86114 136.355 5.86215C136.147 5.86448 135.941 5.89676 135.742 5.95799V12.0148C135.73 12.3913 135.782 12.7671 135.895 13.1264C136.002 13.3887 136.173 13.6196 136.394 13.7973H132.562C132.677 13.7394 132.779 13.6585 132.861 13.5596C132.944 13.4607 133.005 13.3458 133.041 13.2223C133.096 12.9578 133.116 12.687 133.098 12.4173V12.0531Z" fill="white"/>
<path d="M141.239 12.4173V9.56143L139.055 5.42137C138.934 5.18636 138.793 4.96196 138.634 4.75052C138.5 4.60625 138.345 4.48342 138.174 4.38635H141.546L143.212 7.85558L144.055 6.14971L144.266 5.5747C144.287 5.44135 144.287 5.30556 144.266 5.1722C144.278 5.01904 144.245 4.86578 144.17 4.73136C144.097 4.59748 143.983 4.49019 143.845 4.42469H146.469L143.845 9.6381V12.0723C143.808 12.3779 143.808 12.6868 143.845 12.9923C143.938 13.3457 144.131 13.665 144.4 13.9123H140.626C140.847 13.7904 141.017 13.5932 141.105 13.3565C141.217 13.0567 141.262 12.7364 141.239 12.4173Z" fill="white"/>
<path d="M150.607 10.3664C150.598 9.92188 150.686 9.4808 150.865 9.07372C151.043 8.66664 151.308 8.30329 151.641 8.00884C152.392 7.35402 153.367 7.01717 154.362 7.06965C154.904 7.03354 155.447 7.11988 155.951 7.32227C156.455 7.52466 156.907 7.83792 157.274 8.23884C157.833 8.94656 158.125 9.82888 158.098 10.7305C158.116 11.2347 158.008 11.7354 157.784 12.1873C157.56 12.6392 157.226 13.0279 156.814 13.3181C156.076 13.8407 155.189 14.1098 154.285 14.0848C153.8 14.111 153.314 14.0397 152.857 13.8751C152.399 13.7105 151.98 13.4559 151.622 13.1264C151.28 12.7559 151.014 12.3213 150.839 11.8477C150.665 11.3741 150.586 10.8707 150.607 10.3664ZM153.04 10.4814C153.012 11.0101 153.118 11.5373 153.346 12.0147C153.444 12.231 153.604 12.4136 153.805 12.5398C154.006 12.6659 154.239 12.73 154.477 12.7239C154.654 12.7234 154.829 12.6795 154.986 12.596C155.143 12.5125 155.277 12.3919 155.377 12.2447C155.577 11.868 155.669 11.4438 155.645 11.0181C155.663 10.4735 155.592 9.92971 155.435 9.40803C155.383 9.14378 155.242 8.90504 155.037 8.73092C154.832 8.55681 154.573 8.45764 154.304 8.44968C154.116 8.4366 153.928 8.47416 153.76 8.55843C153.591 8.6427 153.449 8.77062 153.346 8.92885C153.099 9.41382 152.993 9.95829 153.04 10.5005V10.4814Z" fill="white"/>
<path d="M159.65 12.6473V8.58391H158.635L159.65 7.18472V6.66721C159.626 6.0671 159.839 5.48167 160.244 5.03802C160.546 4.75137 160.906 4.53157 161.298 4.39288C161.691 4.25419 162.109 4.19972 162.524 4.233H163.597C163.889 4.26426 164.177 4.322 164.459 4.40551L163.501 5.88136C163.438 5.82568 163.367 5.78039 163.29 5.7472C163.156 5.6709 163.004 5.63124 162.85 5.63219C162.749 5.62253 162.647 5.63465 162.551 5.66771C162.455 5.70078 162.367 5.75402 162.294 5.82386C162.153 6.05304 162.092 6.3229 162.122 6.59054V7.26138H163.75V8.92891C163.662 8.77586 163.528 8.65494 163.367 8.58391C163.227 8.56398 163.085 8.56398 162.945 8.58391H162.122V12.6473C162.085 12.8759 162.085 13.1087 162.122 13.3373C162.215 13.538 162.361 13.71 162.543 13.8357H159.114C159.293 13.7234 159.439 13.5644 159.535 13.3756C159.62 13.1426 159.659 12.8952 159.65 12.6473Z" fill="white"/>
<path d="M168.826 12.0914V6.34132C168.84 5.92378 168.808 5.50603 168.731 5.09546C168.641 4.82891 168.466 4.59962 168.232 4.44379H172.064C171.837 4.61472 171.664 4.84767 171.566 5.11463C171.513 5.49617 171.513 5.88311 171.566 6.26465V12.2447C171.548 12.6253 171.587 13.0065 171.681 13.3756C171.78 13.6159 171.946 13.8223 172.16 13.9698H168.328C168.586 13.792 168.77 13.5262 168.846 13.2223C168.889 12.8461 168.883 12.4658 168.826 12.0914Z" fill="white"/>
<path d="M173.539 12.1489V6.66719C173.569 6.22069 173.517 5.77244 173.385 5.34467C173.223 4.98097 172.996 4.64978 172.715 4.36716H175.742L180.167 10.2323V6.26469C180.206 5.96564 180.206 5.66289 180.167 5.36384C180.091 4.98704 179.896 4.64452 179.612 4.38632H182.428C182.2 4.60336 182.029 4.87326 181.93 5.17217C181.82 5.46609 181.768 5.7785 181.777 6.09218V14.2381C181.287 14.2033 180.811 14.0662 180.378 13.8356C179.674 13.5394 179.059 13.0636 178.596 12.4556L175.263 7.98972V12.1873C175.251 12.5279 175.309 12.8673 175.435 13.184C175.542 13.4466 175.706 13.6822 175.914 13.874H173.098C173.315 13.7011 173.486 13.4772 173.596 13.2223C173.639 12.8639 173.62 12.5007 173.539 12.1489Z" fill="white"/>
<path d="M183.597 12.5131V5.82381C183.61 5.53472 183.558 5.2464 183.444 4.98046C183.342 4.76905 183.191 4.58506 183.003 4.44379H188.367H188.655V6.53299C188.573 6.39762 188.465 6.28026 188.336 6.18802C188.208 6.09577 188.062 6.03055 187.908 5.99631C187.691 5.97178 187.473 5.97178 187.256 5.99631H186.222V8.35385H187.601C187.67 8.37355 187.743 8.37355 187.812 8.35385V10.4047C187.762 10.2428 187.652 10.1058 187.505 10.0214C187.261 9.90328 186.991 9.85045 186.72 9.86804H186.222V12.2256C186.185 12.5311 186.185 12.84 186.222 13.1456C186.299 13.5317 186.501 13.8818 186.796 14.1423H182.965C183.095 14.0702 183.208 13.9715 183.297 13.8526C183.386 13.7337 183.449 13.5973 183.482 13.4523C183.59 13.1518 183.63 12.8308 183.597 12.5131Z" fill="white"/>
<path d="M189.326 8.90968C189.314 8.26316 189.446 7.62209 189.711 7.0323C189.976 6.44251 190.368 5.91858 190.859 5.49796C191.92 4.5796 193.288 4.09387 194.69 4.1371C195.391 4.10958 196.09 4.2207 196.747 4.46409C197.405 4.70749 198.008 5.07837 198.522 5.55546C198.981 6.01307 199.341 6.561 199.579 7.1647C199.816 7.76839 199.926 8.41475 199.901 9.06301C199.919 10.2491 199.504 11.401 198.733 12.3022C198.208 12.8875 197.559 13.3467 196.832 13.6454C196.106 13.9442 195.321 14.0747 194.537 14.0273C193.813 14.0627 193.09 13.9501 192.412 13.6964C191.733 13.4426 191.113 13.053 190.59 12.5514C190.123 12.1046 189.754 11.5654 189.507 10.9681C189.26 10.3708 189.139 9.72855 189.153 9.08218V8.85217L189.326 8.90968ZM192.123 8.90968C192.11 9.79258 192.342 10.6618 192.794 11.4206C192.985 11.7653 193.262 12.0554 193.597 12.2634C193.933 12.4713 194.315 12.5903 194.709 12.6089C195.074 12.6418 195.441 12.5817 195.776 12.4343C196.111 12.2868 196.403 12.0567 196.625 11.7656C197.059 11.1365 197.274 10.3823 197.238 9.61886C197.256 8.71465 197.073 7.81781 196.702 6.99298C196.538 6.57713 196.253 6.2199 195.884 5.96716C195.515 5.71443 195.08 5.57773 194.633 5.57462C194.281 5.57139 193.933 5.65337 193.619 5.81356C193.306 5.97376 193.036 6.20742 192.832 6.49464C192.343 7.13012 192.092 7.91678 192.123 8.71801V8.90968Z" fill="white"/>
<path d="M203.982 9.79135V12.4172C203.963 12.7191 204.016 13.0212 204.136 13.2989C204.236 13.5018 204.397 13.669 204.595 13.7781H200.764C200.985 13.6651 201.155 13.4737 201.243 13.2414C201.322 12.9872 201.361 12.722 201.358 12.4556V5.93879C201.371 5.61523 201.332 5.29162 201.243 4.98044C201.161 4.73036 200.991 4.51892 200.764 4.38626H205.477C206.173 4.36739 206.852 4.59858 207.392 5.03794C207.663 5.27555 207.876 5.57156 208.015 5.9036C208.155 6.23565 208.217 6.59504 208.197 6.95464C208.195 7.31654 208.103 7.6722 207.929 7.98966C207.595 8.5452 207.101 8.98632 206.511 9.25468L208.427 12.4172L208.887 13.0881C209.113 13.3774 209.37 13.6409 209.653 13.8739L208.005 13.9889H207.22C206.917 14.0021 206.615 13.943 206.339 13.8164C206.083 13.6267 205.879 13.3764 205.745 13.0881L203.982 9.79135ZM203.982 9.02467C204.42 8.97491 204.823 8.76293 205.113 8.4305C205.394 8.11453 205.544 7.70343 205.534 7.28048C205.562 6.88875 205.446 6.5002 205.208 6.18796C205.069 6.03343 204.897 5.91195 204.705 5.83237C204.512 5.75279 204.305 5.71712 204.097 5.72795H203.982V9.02467Z" fill="white"/>
<path d="M210.344 12.0915L211.052 5.88138V5.55554C211.055 5.3455 211.016 5.13705 210.937 4.94219C210.829 4.72953 210.679 4.54059 210.497 4.38635H213.811L215.995 10.0023L217.7 4.38635H221.225C221.065 4.48322 220.928 4.61406 220.823 4.76969C220.745 4.90414 220.699 5.05512 220.689 5.21053C220.701 5.29315 220.701 5.37708 220.689 5.4597L221.417 12.034C221.457 12.3879 221.541 12.7356 221.666 13.069C221.766 13.3566 221.937 13.614 222.164 13.8165H218.332C218.474 13.6854 218.591 13.5295 218.677 13.3565C218.713 13.2182 218.713 13.0731 218.677 12.9348V12.4173L218.198 7.74057L216.283 14.104C215.64 13.9112 215.046 13.5846 214.539 13.1457C214.261 12.8462 214.057 12.4849 213.945 12.0915L212.355 7.74057L211.857 12.724C211.842 12.9723 211.902 13.2193 212.029 13.4332C212.138 13.6155 212.298 13.762 212.489 13.8548H209.73C209.966 13.6558 210.144 13.3979 210.248 13.1073C210.314 12.7728 210.346 12.4325 210.344 12.0915Z" fill="white"/>
<path d="M223.696 11.7273L225.611 6.09221C225.637 5.96919 225.669 5.84763 225.707 5.72804C225.729 5.56263 225.729 5.3951 225.707 5.2297C225.71 5.07498 225.67 4.92247 225.592 4.78886C225.481 4.62694 225.338 4.48988 225.171 4.38635H228.696L231.512 12.0531C231.629 12.4408 231.789 12.8138 231.991 13.1648C232.194 13.455 232.432 13.719 232.7 13.9507H228.313C228.48 13.8847 228.625 13.772 228.731 13.6259C228.836 13.4797 228.897 13.3064 228.907 13.1265C228.918 13.0246 228.918 12.9217 228.907 12.8198C228.922 12.7182 228.922 12.6148 228.907 12.5131L228.447 11.1331H225.573L225.152 12.3598C225.152 12.4748 225.113 12.609 225.037 12.7623C224.993 12.8934 224.961 13.0281 224.941 13.1648C224.945 13.3093 224.991 13.4495 225.075 13.5673C225.19 13.714 225.325 13.8431 225.477 13.9507H222.508C222.827 13.6852 223.083 13.3511 223.255 12.9732C223.37 12.6473 223.504 12.2831 223.696 11.7273ZM226.014 9.65727H227.93L226.972 6.76305L226.014 9.65727Z" fill="white"/>
<path d="M235.21 12.0531V5.95802H234.788H234.52C234.203 5.95678 233.89 6.02208 233.6 6.14968C233.298 6.26587 233.009 6.41363 232.738 6.59053L233.332 4.36716H233.6H240.382L239.865 6.55219C239.818 6.44037 239.747 6.33987 239.658 6.25729C239.569 6.17471 239.463 6.11191 239.348 6.07302C239.098 5.97263 238.832 5.9206 238.562 5.91968C238.354 5.92201 238.148 5.95428 237.949 6.01552V12.0723C237.928 12.4493 237.98 12.8268 238.103 13.184C238.209 13.4463 238.38 13.6771 238.601 13.8548H234.769C234.996 13.7311 235.167 13.5255 235.248 13.2798C235.33 12.9933 235.369 12.6961 235.363 12.3981L235.21 12.0531Z" fill="white"/>
<path d="M241.244 12.0914V6.34132C241.289 5.92726 241.289 5.50952 241.244 5.09546C241.155 4.82891 240.98 4.59962 240.746 4.44379H244.578C244.351 4.61472 244.178 4.84767 244.08 5.11463C244.005 5.4932 243.973 5.87894 243.984 6.26465V12.2447C243.966 12.6253 244.004 13.0065 244.099 13.3756C244.198 13.6159 244.364 13.8223 244.578 13.9698H240.746C241.004 13.792 241.188 13.5262 241.263 13.2223C241.307 12.8461 241.301 12.4658 241.244 12.0914Z" fill="white"/>
<path d="M245.268 8.90967C245.253 8.26447 245.381 7.62391 245.642 7.03401C245.904 6.44412 246.293 5.91954 246.781 5.49795C247.843 4.5796 249.21 4.09387 250.613 4.1371C251.329 4.09665 252.047 4.20144 252.721 4.44517C253.396 4.6889 254.015 5.06655 254.54 5.55545C255 6.01307 255.36 6.561 255.597 7.16469C255.835 7.76838 255.945 8.41474 255.92 9.06301C255.938 10.2491 255.522 11.401 254.751 12.3022C254.227 12.8875 253.577 13.3467 252.851 13.6454C252.124 13.9442 251.34 14.0747 250.556 14.0273C249.832 14.0605 249.11 13.9468 248.431 13.6932C247.753 13.4395 247.133 13.0511 246.609 12.5514C246.144 12.1036 245.778 11.5638 245.534 10.9664C245.29 10.3691 245.173 9.72729 245.191 9.08217V8.85217L245.268 8.90967ZM248.046 8.90967C248.033 9.79257 248.265 10.6618 248.716 11.4205C248.908 11.7653 249.185 12.0554 249.52 12.2634C249.855 12.4713 250.238 12.5903 250.632 12.6089C250.997 12.6418 251.364 12.5817 251.699 12.4343C252.034 12.2868 252.326 12.0567 252.548 11.7655C252.982 11.1365 253.197 10.3823 253.161 9.61885C253.179 8.71464 252.995 7.8178 252.625 6.99297C252.463 6.57562 252.178 6.21693 251.809 5.96386C251.44 5.71078 251.003 5.57512 250.556 5.57462C250.203 5.57139 249.856 5.65336 249.542 5.81356C249.229 5.97375 248.958 6.20741 248.755 6.49463C248.266 7.13012 248.015 7.91678 248.046 8.718V8.90967Z" fill="white"/>
<path d="M257.394 12.1489V6.66719C257.414 6.22098 257.362 5.77442 257.24 5.34467C257.063 4.98473 256.83 4.65487 256.551 4.36716H259.539L263.984 10.2323V6.26469C264.013 5.96509 264.013 5.66344 263.984 5.36384C263.901 4.98976 263.707 4.64926 263.429 4.38632H266.226C266.009 4.60899 265.845 4.87758 265.747 5.17217C265.631 5.46493 265.572 5.77728 265.574 6.09218V14.2381C265.092 14.2001 264.622 14.0631 264.195 13.8356C263.491 13.5394 262.876 13.0636 262.413 12.4556L259.08 7.98972V12.1873C259.071 12.526 259.123 12.8635 259.233 13.184C259.345 13.4484 259.515 13.6842 259.731 13.874H256.915C257.131 13.7049 257.297 13.4794 257.394 13.2223C257.467 12.8683 257.467 12.503 257.394 12.1489Z" fill="white"/>
<path d="M70.2019 28.3451V22.2499H69.7804H69.5122C69.1956 22.2487 68.8823 22.314 68.5926 22.4416C68.2905 22.5578 68.0015 22.7056 67.7305 22.8825L68.3244 20.6591H68.5926H75.3171L74.7998 22.8441C74.7522 22.7323 74.6815 22.6318 74.5924 22.5492C74.5032 22.4666 74.3976 22.4039 74.2825 22.365C74.0333 22.2627 73.7664 22.2106 73.4971 22.2116C73.2937 22.1825 73.0873 22.1825 72.884 22.2116V28.2684C72.8626 28.6454 72.9147 29.0229 73.0373 29.3801C73.1437 29.6424 73.3151 29.8732 73.5354 30.0509H69.7038C69.8187 29.993 69.9206 29.9121 70.003 29.8132C70.0854 29.7143 70.1465 29.5995 70.1827 29.4759C70.2647 29.1894 70.3035 28.8922 70.2977 28.5942L70.2019 28.3451Z" fill="white"/>
<path d="M76.217 28.7476V22.3649C76.2486 22.0399 76.2486 21.7125 76.217 21.3874C76.1413 21.0936 75.9563 20.8399 75.6997 20.6783H80.4701H81.1214H81.3513V22.7675C81.1941 22.5391 80.9764 22.3589 80.7226 22.2472C80.4689 22.1355 80.1891 22.0967 79.9145 22.1349H78.9566V24.5116H80.1252C80.3718 24.527 80.619 24.4944 80.8532 24.4158V26.4475C80.8218 26.3569 80.7714 26.2741 80.7053 26.2047C80.6392 26.1353 80.559 26.0808 80.4701 26.045C80.2759 25.9645 80.0671 25.9253 79.857 25.93H78.9566V28.6709H79.3014C79.6737 28.7451 80.0522 28.7837 80.4317 28.7859C80.8329 28.7911 81.2328 28.7395 81.6196 28.6325C82.0023 28.5388 82.3408 28.3153 82.5775 28L82.0219 30.1659H75.623C75.8488 30.0499 76.0206 29.8505 76.102 29.6101C76.187 29.3307 76.2258 29.0394 76.217 28.7476Z" fill="white"/>
<path d="M83.0937 25.355C83.0565 24.675 83.1714 23.9953 83.4299 23.3653C83.6884 22.7354 84.084 22.171 84.588 21.7133C85.735 20.8084 87.1718 20.352 88.6304 20.4291H89.7799L90.8911 20.5441V22.4608C90.5876 22.2593 90.2591 22.0982 89.914 21.9816C89.4802 21.8141 89.0188 21.7296 88.5538 21.7324H88.1323C87.7849 21.7595 87.4494 21.8715 87.1555 22.0586C86.8615 22.2458 86.618 22.5024 86.4464 22.8058C86.09 23.4841 85.9183 24.2443 85.9483 25.01C85.9096 25.8798 86.1153 26.743 86.5422 27.5017C86.7259 27.8518 87.0011 28.1454 87.3385 28.3513C87.6759 28.5572 88.0628 28.6676 88.458 28.6709H88.9753C89.5232 28.6753 90.0677 28.5845 90.5845 28.4025C91.1123 28.2439 91.6201 28.0253 92.098 27.7509L91.37 29.8401C90.9337 29.9802 90.4844 30.0765 90.029 30.1276C89.5121 30.1571 88.994 30.1571 88.4771 30.1276C86.9607 30.1929 85.4799 29.6555 84.3581 28.6325C83.8896 28.2133 83.5157 27.6991 83.2614 27.124C83.007 26.549 82.878 25.9263 82.8829 25.2975L83.0937 25.355Z" fill="white"/>
<path d="M93.3056 28.7475V22.1732C93.3444 21.8999 93.3444 21.6224 93.3056 21.3491C93.2183 21.0655 93.0266 20.8256 92.7692 20.6782H96.6008C96.3506 20.838 96.1668 21.0832 96.0835 21.3682C95.9948 21.7188 95.9561 22.0802 95.9686 22.4416V24.3583H98.6124V22.2499C98.6489 21.9572 98.6489 21.661 98.6124 21.3682C98.5823 21.2172 98.5207 21.0743 98.4316 20.9487C98.3424 20.8232 98.2278 20.718 98.0951 20.6399H101.927C101.714 20.7918 101.553 21.0061 101.467 21.2532C101.358 21.5868 101.312 21.9379 101.333 22.2883V28.7475C101.3 28.9892 101.3 29.2342 101.333 29.4759C101.37 29.6139 101.436 29.7429 101.524 29.8549C101.613 29.967 101.724 30.0597 101.85 30.1275H98.0185C98.23 30.0082 98.3927 29.8182 98.4783 29.5909C98.5785 29.3214 98.6241 29.0348 98.6124 28.7475V25.8341H95.9494V28.7667C95.9411 29.0554 95.9933 29.3427 96.1027 29.61C96.2092 29.8251 96.3755 30.0048 96.5816 30.1275H92.75C92.9548 30.0117 93.1213 29.8385 93.229 29.6292C93.3154 29.3438 93.3415 29.0436 93.3056 28.7475Z" fill="white"/>
<path d="M103.249 28.4409V22.9975C103.269 22.5512 103.218 22.1047 103.096 21.6749C102.925 21.3112 102.692 20.9803 102.406 20.6974H105.433L109.878 26.5625V22.5566C109.907 22.257 109.907 21.9554 109.878 21.6558C109.795 21.2817 109.601 20.9412 109.322 20.6783H112.024C111.807 20.9009 111.643 21.1695 111.545 21.4641C111.429 21.7569 111.37 22.0692 111.372 22.3841V30.5301C110.89 30.4921 110.42 30.3551 109.993 30.1276C109.277 29.8236 108.655 29.3339 108.192 28.7092L104.858 24.2433V28.4409C104.85 28.7796 104.902 29.1171 105.012 29.4376C105.124 29.702 105.294 29.9378 105.51 30.1276H102.598C102.814 29.9585 102.98 29.733 103.077 29.4759C103.203 29.1459 103.261 28.7939 103.249 28.4409Z" fill="white"/>
<path d="M112.807 25.2016C112.796 24.5551 112.927 23.914 113.192 23.3243C113.457 22.7345 113.849 22.2105 114.34 21.7899C115.401 20.8715 116.769 20.3858 118.172 20.429C119.586 20.3756 120.964 20.8857 122.003 21.8474C122.484 22.2955 122.867 22.8386 123.128 23.4424C123.388 24.0461 123.521 24.6974 123.517 25.355C123.544 26.5426 123.127 27.6976 122.348 28.5942C121.83 29.1813 121.184 29.642 120.46 29.941C119.736 30.24 118.953 30.3694 118.172 30.3192C117.448 30.3547 116.725 30.2421 116.046 29.9883C115.368 29.7346 114.748 29.345 114.225 28.8434C113.758 28.3965 113.389 27.8573 113.142 27.26C112.894 26.6628 112.774 26.0205 112.788 25.3741V25.1441L112.807 25.2016ZM115.585 25.2016C115.562 26.1004 115.802 26.9864 116.275 27.7508C116.464 28.098 116.74 28.3901 117.076 28.5985C117.412 28.8068 117.796 28.9242 118.191 28.9392C118.555 28.9686 118.921 28.9069 119.255 28.7597C119.59 28.6124 119.882 28.3843 120.107 28.0958C120.56 27.4334 120.77 26.6341 120.701 25.8341C120.731 24.9288 120.547 24.0291 120.164 23.2083C120.02 22.8401 119.781 22.5174 119.469 22.2739C119.158 22.0303 118.788 21.875 118.396 21.824C118.004 21.7731 117.606 21.8284 117.243 21.9843C116.88 22.1401 116.565 22.3908 116.332 22.7099C115.838 23.3436 115.581 24.13 115.604 24.9333L115.585 25.2016Z" fill="white"/>
<path d="M124.763 28.3834V22.0008C124.775 21.7098 124.716 21.4202 124.591 21.1574C124.49 20.9546 124.329 20.7874 124.131 20.6783H127.962C127.829 20.7641 127.714 20.8764 127.625 21.0082C127.536 21.1401 127.475 21.2887 127.445 21.4449C127.411 21.6673 127.411 21.8934 127.445 22.1158V28.5942C127.655 28.6986 127.882 28.7636 128.116 28.7859C128.364 28.8049 128.614 28.8049 128.863 28.7859C129.325 28.7951 129.785 28.7237 130.223 28.575C130.497 28.459 130.76 28.3179 131.009 28.1534L130.472 30.1659H124.131C124.388 30.0096 124.579 29.764 124.667 29.4759C124.736 29.1159 124.768 28.7499 124.763 28.3834Z" fill="white"/>
<path d="M131.622 25.2016C131.61 24.5551 131.742 23.9141 132.007 23.3243C132.272 22.7345 132.664 22.2105 133.154 21.7899C134.216 20.8716 135.583 20.3858 136.986 20.4291C137.702 20.3897 138.419 20.495 139.094 20.7387C139.769 20.9824 140.387 21.3594 140.913 21.8474C141.371 22.306 141.728 22.8545 141.962 23.4583C142.196 24.0621 142.302 24.708 142.274 25.355C142.301 26.5426 141.884 27.6976 141.105 28.5942C140.587 29.1814 139.941 29.6421 139.217 29.941C138.493 30.24 137.71 30.3694 136.929 30.3192C136.228 30.3467 135.529 30.2356 134.871 29.9922C134.214 29.7488 133.611 29.378 133.097 28.9009C132.63 28.454 132.261 27.9148 132.014 27.3176C131.766 26.7203 131.646 26.078 131.66 25.4316V25.2016H131.622ZM134.4 25.2016C134.354 26.0928 134.567 26.9782 135.013 27.7508C135.205 28.0956 135.481 28.3857 135.817 28.5937C136.152 28.8016 136.535 28.9206 136.929 28.9392C137.293 28.9721 137.66 28.912 137.995 28.7646C138.33 28.6171 138.622 28.387 138.844 28.0959C139.325 27.4435 139.562 26.6433 139.515 25.8341C139.545 24.9288 139.362 24.0291 138.979 23.2083C138.835 22.8401 138.595 22.5174 138.284 22.2739C137.973 22.0303 137.602 21.875 137.21 21.824C136.818 21.7731 136.42 21.8284 136.057 21.9843C135.694 22.1401 135.38 22.3908 135.147 22.7099C134.653 23.3436 134.395 24.13 134.419 24.9333L134.4 25.2016Z" fill="white"/>
<path d="M142.983 25.47C142.945 24.7399 143.082 24.0113 143.382 23.3447C143.681 22.678 144.136 22.0925 144.707 21.6366C145.804 20.7981 147.159 20.3708 148.539 20.429C148.902 20.3977 149.267 20.3977 149.631 20.429C149.986 20.4771 150.338 20.5475 150.684 20.6399V22.7482C150.405 22.4729 150.073 22.2577 149.707 22.1157C149.291 21.9957 148.855 21.9566 148.424 22.0007C148.072 21.9767 147.72 22.0275 147.39 22.1498C147.059 22.272 146.759 22.4629 146.508 22.7099C145.923 23.4024 145.634 24.2975 145.703 25.2016C145.667 26.0108 145.839 26.8157 146.201 27.54C146.404 27.9783 146.733 28.3459 147.146 28.5953C147.559 28.8447 148.037 28.9645 148.519 28.9392H149.018V26.7925C149.059 26.4872 149.059 26.1777 149.018 25.8725C148.868 25.6259 148.665 25.4163 148.424 25.2591H151.47V29.9167C150.975 30.0725 150.469 30.1878 149.956 30.2617C149.455 30.3374 148.949 30.3758 148.443 30.3767C147.043 30.4086 145.677 29.9396 144.592 29.0542C144.069 28.6181 143.653 28.0688 143.374 27.4478C143.095 26.8268 142.961 26.1504 142.983 25.47Z" fill="white"/>
<path d="M154.784 28.7667V25.8342L152.6 21.6941C152.495 21.4714 152.38 21.2539 152.255 21.0424C152.121 20.8981 151.966 20.7753 151.795 20.6783H155.148L156.834 24.1475L157.676 22.4416L157.887 21.8666C157.908 21.7332 157.908 21.5975 157.887 21.4641C157.92 21.319 157.92 21.1684 157.887 21.0233C157.814 20.8894 157.7 20.7821 157.562 20.7166H160.186L157.466 25.8342V28.2684C157.429 28.5739 157.429 28.8828 157.466 29.1884C157.559 29.5418 157.752 29.861 158.021 30.1084H154.171C154.392 29.9865 154.562 29.7893 154.649 29.5526C154.741 29.3008 154.787 29.0346 154.784 28.7667Z" fill="white"/>
<path d="M163.405 28.3259C163.406 27.9791 163.501 27.6391 163.68 27.3421C163.859 27.0451 164.115 26.8021 164.421 26.6392C165.037 26.3811 165.68 26.1884 166.336 26.0642C167.026 25.8917 167.352 25.6808 167.352 25.3933C167.355 25.2943 167.329 25.1965 167.278 25.1116C167.227 25.0267 167.153 24.9581 167.065 24.9141C166.874 24.7994 166.655 24.7397 166.432 24.7416C166.121 24.739 165.811 24.7843 165.513 24.8758C165.209 24.9461 164.913 25.0489 164.631 25.1825L165.34 23.5341L166.107 23.3808H166.911C167.687 23.3235 168.463 23.504 169.134 23.8983C169.419 24.1234 169.643 24.4174 169.783 24.7527C169.924 25.088 169.977 25.4535 169.938 25.815V27.7317C169.912 28.1209 170.006 28.5088 170.206 28.8434C170.332 28.966 170.483 29.059 170.648 29.1154C170.814 29.1718 170.99 29.1902 171.164 29.1692L170.57 30.3767H170.245H169.881C169.292 30.3946 168.711 30.2342 168.214 29.9167C167.942 29.7378 167.72 29.4926 167.57 29.2042C167.419 28.9158 167.344 28.5938 167.352 28.2684V27.08C166.981 27.211 166.632 27.3985 166.317 27.6359C166.24 27.7134 166.179 27.8063 166.14 27.9086C166.1 28.0109 166.082 28.1204 166.087 28.23C166.085 28.4617 166.167 28.6864 166.317 28.8625C166.402 28.9482 166.504 29.0147 166.616 29.0577C166.728 29.1007 166.849 29.1191 166.969 29.1117H167.256L166.643 30.3767H166.222H165.877C165.283 30.4042 164.695 30.2504 164.191 29.9359C163.939 29.7518 163.735 29.5089 163.598 29.2284C163.462 28.9478 163.395 28.6379 163.405 28.3259Z" fill="white"/>
<path d="M171.874 28.6134V24.6649C171.913 24.4883 171.913 24.305 171.874 24.1283C171.788 23.9125 171.65 23.7214 171.472 23.5724H173.387H173.943C174.127 23.5337 174.307 23.4759 174.479 23.3999V24.2049C174.674 23.947 174.931 23.7426 175.227 23.6108C175.564 23.4619 175.931 23.3898 176.299 23.3999C176.958 23.3734 177.603 23.5996 178.1 24.0324C178.326 24.2264 178.507 24.4677 178.63 24.7393C178.752 25.0109 178.813 25.3062 178.809 25.6041V28.8625C178.771 29.1359 178.771 29.4133 178.809 29.6867C178.9 29.9049 179.053 30.0915 179.25 30.2234H175.705C175.896 30.0981 176.043 29.9175 176.127 29.7059C176.169 29.3942 176.169 29.0783 176.127 28.7667V25.8341C176.138 25.5388 176.035 25.2506 175.84 25.0291C175.762 24.9355 175.666 24.8597 175.557 24.8067C175.448 24.7538 175.329 24.7251 175.207 24.7225C175.089 24.7215 174.972 24.7448 174.863 24.7909C174.755 24.8371 174.657 24.9051 174.575 24.9908C174.388 25.2082 174.292 25.4899 174.307 25.7766V28.7284C174.27 28.989 174.27 29.2535 174.307 29.5142C174.384 29.7399 174.532 29.9348 174.728 30.07H171.414C171.603 29.9272 171.749 29.7348 171.836 29.5142C171.885 29.2166 171.898 28.9141 171.874 28.6134Z" fill="white"/>
<path d="M180.016 26.8691C180.005 26.0113 180.281 25.1744 180.801 24.4924C181.085 24.1117 181.455 23.8049 181.882 23.5981C182.309 23.3912 182.78 23.2904 183.254 23.3041C183.556 23.3055 183.855 23.364 184.135 23.4766C184.389 23.5822 184.622 23.7314 184.825 23.9174V22.5757C184.874 22.1491 184.874 21.7182 184.825 21.2916C184.741 21.0532 184.596 20.8415 184.403 20.6782H186.319H186.875C187.054 20.6337 187.227 20.5694 187.392 20.4865V27.9617C187.35 28.4271 187.35 28.8954 187.392 29.3609C187.495 29.6935 187.687 29.9917 187.947 30.2234H184.825V25.8341C184.837 25.5599 184.756 25.2894 184.595 25.0675C184.517 24.9653 184.415 24.884 184.298 24.8305C184.181 24.777 184.053 24.7531 183.924 24.7608C183.77 24.757 183.617 24.7857 183.475 24.8452C183.334 24.9046 183.206 24.9934 183.1 25.1058C182.767 25.5949 182.612 26.1834 182.66 26.7733C182.641 27.2507 182.761 27.7234 183.005 28.1342C183.164 28.3692 183.383 28.5583 183.638 28.6827C183.894 28.8071 184.177 28.8625 184.461 28.8433L183.771 30.0509C183.702 30.0679 183.629 30.0679 183.56 30.0509H183.273C182.851 30.0576 182.431 29.9797 182.04 29.8217C181.648 29.6636 181.292 29.4287 180.993 29.1308C180.394 28.5272 180.045 27.7193 180.016 26.8691Z" fill="white"/>
<path d="M193.483 28.3834L194.192 22.1733V21.8474C194.195 21.6374 194.155 21.4289 194.077 21.2341C193.976 21.0217 193.833 20.8325 193.656 20.6783H196.97L199.154 26.2942L200.859 20.6783H204.307C204.147 20.7815 204.004 20.9111 203.886 21.0616C203.816 21.1996 203.77 21.3488 203.752 21.5024C203.766 21.5849 203.766 21.6691 203.752 21.7516L204.48 28.3259C204.505 28.6803 204.583 29.0291 204.71 29.3609C204.823 29.6414 204.993 29.8957 205.208 30.1084H201.376C201.529 29.9825 201.653 29.8257 201.74 29.6484C201.767 29.5091 201.767 29.366 201.74 29.2267V28.6709L201.261 23.9941L199.346 30.3576C198.7 30.1591 198.101 29.8332 197.583 29.3992C197.311 29.0978 197.115 28.7367 197.008 28.345L195.399 23.9941L194.92 28.9776C194.91 29.2232 194.962 29.4673 195.073 29.6867C195.19 29.8697 195.356 30.0159 195.552 30.1084H192.717C192.964 29.916 193.15 29.6565 193.253 29.3609C193.369 29.0456 193.446 28.7173 193.483 28.3834Z" fill="white"/>
<path d="M206.838 28.0192L208.753 22.3841L208.868 22.0199C208.892 21.8547 208.892 21.6869 208.868 21.5216C208.871 21.3669 208.831 21.2144 208.753 21.0808C208.647 20.9147 208.503 20.7766 208.332 20.6783H211.876L214.692 28.345C214.809 28.7327 214.97 29.1057 215.171 29.4567C215.361 29.7513 215.594 30.0162 215.861 30.2426H211.646C211.814 30.1767 211.959 30.0639 212.064 29.9178C212.17 29.7716 212.231 29.5983 212.24 29.4184V29.1117C212.24 29.1117 212.24 28.9392 212.125 28.8051L211.685 27.425H208.811L208.389 28.6517C208.389 28.7667 208.389 28.9009 208.255 29.0542C208.121 29.2076 208.255 29.3417 208.255 29.4567C208.249 29.6028 208.297 29.7462 208.389 29.8592C208.494 30.0145 208.632 30.1452 208.792 30.2426H205.822C206.136 29.976 206.385 29.6418 206.55 29.2651C206.684 28.8595 206.78 28.4424 206.838 28.0192ZM209.156 25.9492H211.072L210.056 23.055L209.156 25.9492Z" fill="white"/>
<path d="M217.239 28.4409V22.9975C217.266 22.5497 217.207 22.101 217.067 21.6749C216.904 21.3112 216.677 20.98 216.396 20.6974H219.423L223.849 26.5625V22.5566C223.888 22.2576 223.888 21.9548 223.849 21.6558C223.771 21.2839 223.584 20.9437 223.313 20.6783H226.129C225.906 20.8998 225.736 21.1683 225.631 21.4641C225.521 21.758 225.469 22.0704 225.477 22.3841V30.5301C224.989 30.493 224.513 30.3561 224.079 30.1276C223.375 29.8314 222.76 29.3555 222.297 28.7476L218.964 24.2816V28.4792C218.951 28.8198 219.01 29.1593 219.136 29.4759C219.243 29.7385 219.406 29.9742 219.615 30.1659H216.818C217.029 29.9918 217.194 29.7679 217.297 29.5142C217.351 29.1563 217.332 28.791 217.239 28.4409Z" fill="white"/>
<path d="M227.7 28.0192L229.616 22.3841C229.616 22.3841 229.616 22.2308 229.731 22.0199C229.754 21.8547 229.754 21.6869 229.731 21.5216C229.733 21.3669 229.694 21.2144 229.616 21.0808C229.51 20.9147 229.365 20.7766 229.194 20.6783H232.738L235.536 28.345C235.657 28.7339 235.825 29.107 236.034 29.4567C236.223 29.7513 236.456 30.0162 236.723 30.2426H232.336C232.504 30.1767 232.649 30.0639 232.754 29.9178C232.859 29.7716 232.92 29.5983 232.93 29.4184C232.942 29.3165 232.942 29.2136 232.93 29.1117C232.945 29.0101 232.945 28.9067 232.93 28.8051L232.489 27.425H229.596L229.175 28.6517C229.175 28.7667 229.137 28.9009 229.06 29.0542C229.047 29.1881 229.047 29.3229 229.06 29.4567C229.054 29.6028 229.101 29.7462 229.194 29.8592C229.299 30.0145 229.436 30.1452 229.596 30.2426H226.627C226.935 29.9706 227.182 29.6377 227.355 29.2651C227.498 28.858 227.613 28.4418 227.7 28.0192ZM230.018 25.9492H231.934L230.918 23.055L230.018 25.9492Z" fill="white"/>
<path d="M236.723 25.4699C236.685 24.7399 236.822 24.0113 237.122 23.3447C237.422 22.678 237.876 22.0925 238.447 21.6365C239.545 20.7995 240.9 20.3724 242.279 20.429C242.636 20.3984 242.995 20.3984 243.352 20.429C243.707 20.4771 244.059 20.5475 244.405 20.6399V22.7482C244.133 22.4648 243.798 22.2483 243.428 22.1157C243.037 21.9638 242.622 21.8859 242.202 21.8857C241.851 21.8641 241.499 21.916 241.17 22.0382C240.84 22.1603 240.539 22.3499 240.286 22.5949C239.701 23.2874 239.412 24.1825 239.482 25.0866C239.455 25.895 239.626 26.6977 239.98 27.425C240.185 27.8648 240.518 28.2331 240.934 28.4824C241.351 28.7318 241.832 28.8508 242.317 28.8241H242.796V26.7924C242.816 26.4826 242.783 26.1716 242.7 25.8724C242.584 25.6374 242.421 25.4286 242.221 25.2591H245.287V29.9167C244.785 30.07 244.273 30.1853 243.754 30.2617C243.259 30.3366 242.76 30.3751 242.26 30.3767C240.813 30.445 239.393 29.9737 238.275 29.0541C237.764 28.6116 237.359 28.0596 237.09 27.4391C236.822 26.8186 236.696 26.1456 236.723 25.4699Z" fill="white"/>
<path d="M246.667 28.7476V22.3649C246.709 22.0404 246.709 21.7119 246.667 21.3874C246.592 21.0936 246.407 20.8399 246.15 20.6783H250.92H251.572H251.802V22.7675C251.644 22.5391 251.427 22.3589 251.173 22.2472C250.919 22.1355 250.639 22.0967 250.365 22.1349H249.407V24.5116H250.576C250.822 24.527 251.069 24.4944 251.304 24.4158V26.4475C251.272 26.3569 251.222 26.2741 251.156 26.2047C251.09 26.1353 251.009 26.0808 250.92 26.045C250.726 25.9645 250.517 25.9253 250.307 25.93H249.407V28.6709H249.771C250.137 28.7461 250.509 28.7846 250.882 28.7859C251.283 28.7911 251.683 28.7395 252.07 28.6325C252.455 28.5434 252.795 28.3189 253.028 28L252.472 30.1659H246.131C246.357 30.0499 246.528 29.8505 246.61 29.6101C246.675 29.3276 246.695 29.0363 246.667 28.7476Z" fill="white"/>
<path d="M254.043 28.3834L254.752 22.1733V21.8474C254.754 21.6374 254.715 21.4289 254.637 21.2341C254.536 21.0217 254.393 20.8325 254.215 20.6783H257.53L259.714 26.2942L261.419 20.6783H264.848C264.696 20.7858 264.56 20.9149 264.446 21.0616C264.374 21.1977 264.335 21.3486 264.331 21.5024C264.331 21.5024 264.331 21.6366 264.331 21.7516L265.059 28.3259C265.084 28.6803 265.161 29.0291 265.289 29.3609C265.402 29.6414 265.572 29.8957 265.787 30.1084H261.955C262.108 29.9825 262.232 29.8257 262.319 29.6484C262.378 29.5153 262.41 29.3721 262.415 29.2267V28.6709L261.936 23.9941L260.02 30.3576C259.375 30.1591 258.775 29.8332 258.258 29.3992C257.986 29.095 257.783 28.7353 257.664 28.345L256.074 23.9941L255.595 28.9776C255.566 29.2138 255.606 29.4533 255.71 29.6676C255.814 29.8537 255.975 30.0015 256.169 30.0892H253.334C253.581 29.8968 253.767 29.6373 253.87 29.3417C253.965 29.0302 254.023 28.7085 254.043 28.3834Z" fill="white"/>
<path d="M266.955 28.7476V22.3649C266.997 22.0404 266.997 21.7119 266.955 21.3874C266.879 21.0936 266.694 20.8399 266.438 20.6783H271.227H271.859H272.089V22.7675C271.935 22.5406 271.721 22.3613 271.47 22.2496C271.22 22.1378 270.943 22.0981 270.672 22.1349H269.694V24.5116H270.863C271.11 24.527 271.357 24.4944 271.591 24.4158V26.4475C271.561 26.3593 271.513 26.2781 271.45 26.2089C271.388 26.1398 271.312 26.084 271.227 26.045C271.032 25.9666 270.824 25.9275 270.614 25.93H269.694V28.6709H270.058C270.424 28.7461 270.796 28.7846 271.17 28.7859C271.571 28.7924 271.971 28.7407 272.357 28.6325C272.742 28.5434 273.082 28.3189 273.315 28L272.76 30.1659H266.342C266.455 30.1111 266.557 30.0335 266.639 29.9378C266.721 29.8422 266.783 29.7306 266.821 29.6101C266.912 29.3318 266.957 29.0405 266.955 28.7476Z" fill="white"/>
<path d="M274.58 28.4409V22.9975C274.61 22.551 274.558 22.1027 274.426 21.6749C274.264 21.3112 274.037 20.98 273.756 20.6974H276.783L281.208 26.5625V22.5566C281.247 22.2576 281.247 21.9548 281.208 21.6558C281.13 21.2839 280.944 20.9437 280.672 20.6783H283.488C283.266 20.8998 283.096 21.1683 282.99 21.4641C282.88 21.758 282.828 22.0704 282.837 22.3841V30.5301C282.348 30.4952 281.871 30.3581 281.438 30.1276C280.734 29.8314 280.12 29.3555 279.657 28.7476L276.323 24.2816V28.4792C276.311 28.8198 276.369 29.1593 276.495 29.4759C276.602 29.7385 276.766 29.9742 276.974 30.1659H274.158C274.38 29.998 274.552 29.7727 274.656 29.5142C274.703 29.1549 274.677 28.7898 274.58 28.4409Z" fill="white"/>
<path d="M285.999 28.3451V22.2499H285.577H285.29C284.98 22.2508 284.673 22.3161 284.389 22.4416C284.086 22.5538 283.796 22.7018 283.527 22.8825L284.102 20.6591H284.37H291.095L290.597 22.8441C290.49 22.6256 290.306 22.4547 290.079 22.365C289.829 22.2663 289.563 22.2143 289.294 22.2116C289.084 22.1839 288.872 22.1839 288.662 22.2116V28.2684C288.65 28.6449 288.702 29.0207 288.815 29.3801C288.93 29.6376 289.1 29.8667 289.313 30.0509H285.481C285.704 29.9216 285.873 29.718 285.96 29.4759C286.033 29.1875 286.071 28.8916 286.075 28.5942L285.999 28.3451Z" fill="white"/>
<path d="M69.0306 44.4644V40.2094C69.0586 40.0059 69.0586 39.7995 69.0306 39.596C68.9929 39.4779 68.9308 39.369 68.8483 39.2766C68.7658 39.1841 68.6647 39.1101 68.5516 39.0593H69.3371C69.7032 39.1005 70.0716 39.005 70.3716 38.791V44.2344C70.3332 44.5463 70.3332 44.8617 70.3716 45.1736C70.413 45.2829 70.477 45.3821 70.5596 45.4647C70.6422 45.5473 70.7414 45.6114 70.8506 45.6528H68.4941C68.5956 45.6111 68.6873 45.5487 68.7631 45.4695C68.839 45.3902 68.8975 45.296 68.9348 45.1928C69.0133 44.9584 69.0459 44.7111 69.0306 44.4644ZM69.6245 36.2993C69.7444 36.2931 69.8643 36.3121 69.9765 36.355C70.0886 36.3979 70.1906 36.4638 70.2758 36.5485C70.4419 36.7178 70.5377 36.9438 70.5441 37.181C70.5517 37.3028 70.5315 37.4248 70.485 37.5377C70.4386 37.6506 70.367 37.7515 70.2758 37.8326C70.1916 37.9198 70.0902 37.9886 69.9781 38.0348C69.866 38.0809 69.7457 38.1035 69.6245 38.101C69.5054 38.1011 69.3876 38.0771 69.2781 38.0304C69.1686 37.9837 69.0697 37.9153 68.9874 37.8293C68.905 37.7434 68.8409 37.6416 68.799 37.5302C68.757 37.4187 68.738 37.2999 68.7432 37.181C68.7412 37.0672 68.7623 36.9542 68.8051 36.8488C68.8479 36.7434 68.9115 36.6478 68.9923 36.5676C69.0713 36.479 69.169 36.409 69.2783 36.3626C69.3876 36.3162 69.5058 36.2946 69.6245 36.2993Z" fill="white"/>
<path d="M72.4232 44.3494V40.1902C72.4562 39.9806 72.4562 39.7672 72.4232 39.5577C72.3866 39.4418 72.3271 39.3346 72.2481 39.2423C72.169 39.1501 72.0722 39.0748 71.9634 39.021H72.4232H72.8255C73.157 39.0278 73.4853 38.9555 73.7834 38.8102V39.941C74.0201 39.5732 74.3508 39.2754 74.7413 39.0785C75.0791 38.9043 75.4533 38.8124 75.8333 38.8102C76.5299 38.7635 77.2171 38.9904 77.7491 39.4427C77.9847 39.6994 78.1643 40.0024 78.2764 40.3324C78.3886 40.6624 78.4308 41.0122 78.4005 41.3594V44.4453C78.3568 44.6925 78.3568 44.9455 78.4005 45.1928C78.4888 45.4042 78.6527 45.5751 78.8603 45.6719H76.523C76.7198 45.5578 76.8744 45.383 76.9636 45.1736C77.0035 44.8939 77.0035 44.61 76.9636 44.3303V42.0302C77.0078 41.6924 76.9848 41.3492 76.896 41.0203C76.8073 40.6913 76.6545 40.3832 76.4464 40.1135C76.2867 39.9471 76.0923 39.8179 75.8771 39.7351C75.6619 39.6523 75.4311 39.6179 75.2011 39.6343C74.9618 39.6055 74.7192 39.6399 74.4973 39.734C74.2755 39.8282 74.0822 39.9789 73.9366 40.171C73.6982 40.5617 73.5908 41.0183 73.6301 41.4744V44.3111C73.6301 44.6178 73.6301 44.7903 73.6301 44.8478C73.6685 44.9909 73.7383 45.1236 73.8344 45.2364C73.9305 45.3491 74.0505 45.439 74.1857 45.4994H71.8867C72.106 45.3666 72.2746 45.1642 72.3657 44.9244C72.4033 44.7351 72.4226 44.5425 72.4232 44.3494Z" fill="white"/>
<path d="M84.5311 43.6019V38.0435C84.5623 37.6416 84.5623 37.2379 84.5311 36.836C84.4953 36.6894 84.4267 36.5528 84.3305 36.4366C84.2342 36.3204 84.1129 36.2276 83.9755 36.1651H87.309C88.1516 36.1123 88.9821 36.3869 89.6272 36.9318C89.8386 37.1372 90.0067 37.383 90.1215 37.6547C90.2363 37.9263 90.2955 38.2182 90.2955 38.5131C90.2955 38.808 90.2363 39.0999 90.1215 39.3715C90.0067 39.6431 89.8386 39.8889 89.6272 40.0943C89.1588 40.5601 88.578 40.8968 87.9413 41.0719L90.1636 43.8319C90.3765 44.0903 90.6069 44.3337 90.8533 44.5603C91.323 44.9874 91.8295 45.3722 92.3668 45.7103H90.9491C90.6233 45.721 90.3002 45.6485 90.0103 45.4994C89.7421 45.3417 89.5129 45.1255 89.3398 44.8669L87.6347 42.7777L86.3128 40.746C86.9154 40.6779 87.4932 40.4677 87.9987 40.1327C88.2499 39.9584 88.4557 39.7265 88.599 39.4565C88.7423 39.1864 88.819 38.8859 88.8225 38.5802C88.8563 38.3412 88.822 38.0977 88.7238 37.8773C88.6255 37.657 88.4672 37.4688 88.267 37.3343C87.8705 37.0902 87.4102 36.97 86.945 36.9893H86.5236L86.0255 37.0851V43.6019C85.9701 44.0602 85.9701 44.5236 86.0255 44.9819C86.0689 45.1127 86.1391 45.233 86.2314 45.3353C86.3237 45.4375 86.4363 45.5195 86.5619 45.5761H83.8223C83.9693 45.5504 84.1057 45.4823 84.2146 45.3802C84.3235 45.278 84.4002 45.1463 84.4353 45.0011C84.5187 44.5397 84.5508 44.0704 84.5311 43.6019Z" fill="white"/>
<path d="M91.4277 45.6527L95.4318 40.0943H94.5314H93.6884C93.359 40.089 93.0304 40.1276 92.7113 40.2093C92.4181 40.2959 92.1448 40.4392 91.9067 40.631L92.5772 39.136H97.7308L93.8991 44.6369H94.9337L96.2939 44.7902C96.6319 44.7905 96.9679 44.7388 97.2901 44.6369C97.6629 44.5122 98.0173 44.3381 98.3438 44.1194L97.5775 45.7102L91.4277 45.6527Z" fill="white"/>
<path d="M98.4962 42.2602C98.4699 41.3835 98.786 40.531 99.3775 39.8835C99.7278 39.5072 100.156 39.2126 100.633 39.0205C101.11 38.8284 101.623 38.7435 102.136 38.7718C102.991 38.7565 103.818 39.0804 104.435 39.6727C104.748 39.9903 104.992 40.3682 105.153 40.7834C105.315 41.1987 105.39 41.6425 105.374 42.0877H100.048C100.038 42.7201 100.233 43.3386 100.604 43.8511C100.832 44.1489 101.121 44.3951 101.451 44.5734C101.781 44.7518 102.145 44.8584 102.519 44.8861H102.883C103.3 44.8867 103.713 44.822 104.11 44.6944C104.526 44.5774 104.916 44.3822 105.259 44.1194L104.589 45.4803L103.592 45.7678C103.254 45.7963 102.915 45.7963 102.577 45.7678C101.592 45.8222 100.617 45.5529 99.799 45.0011C99.3721 44.6878 99.0296 44.2733 98.8022 43.795C98.5749 43.3166 98.4697 42.7893 98.4962 42.2602ZM100.105 41.2252H103.937C103.92 41.0089 103.859 40.7985 103.756 40.6072C103.654 40.4159 103.514 40.2478 103.343 40.1135C102.986 39.8588 102.556 39.7246 102.117 39.7302C101.657 39.7219 101.207 39.8631 100.834 40.1327C100.649 40.2479 100.49 40.3988 100.365 40.5766C100.24 40.7543 100.152 40.9553 100.105 41.1677V41.2252Z" fill="white"/>
<path d="M106.276 40.7268C106.264 40.4047 106.348 40.0863 106.519 39.8129C106.69 39.5395 106.939 39.3237 107.234 39.1935C107.831 38.9072 108.488 38.7692 109.149 38.791H110.031C110.264 38.8172 110.494 38.862 110.72 38.9251V40.171C110.131 39.8599 109.471 39.7079 108.805 39.7301C108.477 39.7174 108.15 39.7762 107.847 39.9026C107.74 39.9547 107.65 40.0367 107.589 40.1388C107.528 40.2409 107.497 40.3587 107.502 40.4777C107.502 40.7652 107.866 41.0143 108.46 41.2443L110.376 41.896C110.701 42.0491 110.984 42.2794 111.199 42.5669C111.405 42.8361 111.513 43.1673 111.506 43.506C111.512 43.8738 111.413 44.2356 111.219 44.5483C111.025 44.861 110.746 45.1113 110.414 45.2694C109.764 45.6288 109.03 45.8075 108.287 45.7869C107.633 45.7942 106.983 45.6772 106.372 45.4419L105.893 44.0236C106.278 44.2958 106.705 44.503 107.157 44.6369C107.611 44.7711 108.082 44.8421 108.556 44.8477C108.949 44.8592 109.341 44.7874 109.705 44.6369C109.843 44.5833 109.963 44.4919 110.051 44.3732C110.139 44.2545 110.192 44.1134 110.203 43.966C110.204 43.8108 110.163 43.6581 110.086 43.5234C110.008 43.3888 109.897 43.277 109.763 43.1994C109.139 42.9086 108.499 42.6527 107.847 42.4327C107.441 42.2996 107.064 42.0916 106.736 41.8193C106.586 41.6804 106.467 41.5111 106.388 41.3227C106.309 41.1343 106.27 40.9312 106.276 40.7268Z" fill="white"/>
<path d="M111.717 45.6527L115.721 40.0943H114.84H113.977C113.648 40.0905 113.32 40.1292 113 40.2093C112.707 40.2959 112.434 40.4392 112.196 40.631L112.866 39.136H118.02L114.188 44.6369C114.533 44.6178 114.878 44.6178 115.223 44.6369L116.583 44.7902C116.927 44.789 117.269 44.7373 117.598 44.6369C117.965 44.5115 118.313 44.3374 118.633 44.1194L117.867 45.7102L111.717 45.6527Z" fill="white"/>
<path d="M118.747 42.3369C118.732 41.4401 119.069 40.5732 119.685 39.9219C120.064 39.5393 120.519 39.2409 121.021 39.0461C121.523 38.8512 122.06 38.7643 122.597 38.791C123.52 38.7701 124.417 39.0987 125.107 39.711C125.461 40.0326 125.744 40.4247 125.937 40.862C126.131 41.2994 126.231 41.7724 126.231 42.2507C126.231 42.7289 126.131 43.202 125.937 43.6393C125.744 44.0767 125.461 44.4687 125.107 44.7903C124.391 45.4613 123.445 45.8317 122.463 45.8253C121.951 45.8512 121.439 45.769 120.96 45.5841C120.482 45.3992 120.047 45.1157 119.685 44.752C119.067 44.1018 118.73 43.2341 118.747 42.3369ZM120.222 42.1452C120.21 42.8372 120.433 43.5127 120.854 44.0619C121.032 44.3123 121.268 44.5161 121.541 44.6562C121.815 44.7963 122.118 44.8686 122.425 44.867H122.54C122.855 44.8878 123.17 44.8304 123.458 44.7C123.745 44.5696 123.996 44.3702 124.188 44.1194C124.545 43.6389 124.728 43.0505 124.705 42.4519C124.72 41.7624 124.505 41.0876 124.092 40.5352C123.91 40.2577 123.658 40.0322 123.363 39.881C123.067 39.7298 122.738 39.658 122.406 39.6727C121.911 39.6707 121.43 39.8399 121.046 40.1519C120.757 40.3925 120.532 40.6997 120.388 41.0469C120.245 41.3942 120.187 41.7711 120.222 42.1452Z" fill="white"/>
<path d="M128.806 44.4645L127.159 40.1711C126.986 39.7686 126.89 39.5769 126.89 39.5577C126.764 39.3395 126.586 39.1553 126.373 39.0211H127.35H127.733C127.872 39.017 128.006 38.9702 128.116 38.8869C128.108 39.0145 128.108 39.1426 128.116 39.2702C128.107 39.353 128.107 39.4366 128.116 39.5194L129.841 44.062L131.239 40.5161C131.239 40.4011 131.278 40.2669 131.354 40.1136C131.378 39.9741 131.378 39.8314 131.354 39.6919C131.351 39.567 131.312 39.4458 131.24 39.3435C131.168 39.2411 131.068 39.1623 130.952 39.1169H132.868V39.2511C132.91 39.4325 132.961 39.6116 133.021 39.7877C133.021 40.0177 133.193 40.2478 133.289 40.4969L134.554 44.0237L135.952 40.5928L136.105 40.1519C136.129 40.0188 136.129 39.8825 136.105 39.7494C136.1 39.6078 136.054 39.4707 135.973 39.355C135.891 39.2392 135.777 39.1498 135.646 39.0977H137.561L135.013 45.902L134.324 45.5187C134.028 45.2719 133.809 44.9462 133.691 44.5795L132.274 40.7461L130.358 45.8062C129.943 45.6686 129.568 45.4317 129.266 45.1162C129.08 44.9242 128.925 44.7043 128.806 44.4645Z" fill="white"/>
<path d="M137.389 47.167C137.604 46.9604 137.809 46.7429 138.002 46.5153C138.208 46.3252 138.355 46.0787 138.423 45.8061C138.438 45.7693 138.438 45.728 138.423 45.6911C138.199 45.6627 137.991 45.5617 137.829 45.4036C137.758 45.3378 137.7 45.2579 137.66 45.1688C137.621 45.0798 137.6 44.9836 137.599 44.8861C137.598 44.7753 137.619 44.6653 137.662 44.563C137.705 44.4608 137.768 44.3685 137.848 44.292C137.926 44.2083 138.022 44.1427 138.128 44.0996C138.233 44.0566 138.347 44.0372 138.462 44.0428C138.705 44.0442 138.939 44.1405 139.113 44.3111C139.203 44.4055 139.273 44.5168 139.319 44.6386C139.365 44.7604 139.386 44.8902 139.381 45.0203C139.369 45.3894 139.271 45.7504 139.094 46.0745C138.903 46.4354 138.65 46.7599 138.347 47.0328C138.296 47.0808 138.235 47.1176 138.169 47.1407C138.103 47.1638 138.033 47.1728 137.963 47.167H137.389Z" fill="white"/>
<path d="M145.761 44.1961V37.6602C145.78 37.3099 145.734 36.9591 145.627 36.6252C145.579 36.5133 145.508 36.4128 145.419 36.3303C145.33 36.2477 145.224 36.1849 145.109 36.146H148.615C149.421 36.1094 150.22 36.3092 150.914 36.721C151.247 36.9151 151.521 37.1959 151.706 37.5335C151.892 37.8711 151.982 38.2527 151.968 38.6377C151.976 39.0312 151.889 39.4209 151.716 39.7743C151.543 40.1276 151.288 40.4345 150.972 40.6694C150.495 41.0596 149.917 41.3056 149.305 41.3786H149.056H148.73C148.546 41.4005 148.359 41.4005 148.175 41.3786C148.01 41.328 147.85 41.2639 147.696 41.1869C148.319 41.1956 148.927 40.9929 149.42 40.6119C149.688 40.425 149.907 40.1754 150.057 39.8849C150.208 39.5943 150.285 39.2715 150.282 38.9444C150.301 38.6928 150.261 38.4403 150.164 38.2073C150.068 37.9742 149.918 37.7671 149.727 37.6027C149.284 37.3119 148.761 37.1708 148.232 37.2002C147.901 37.1702 147.567 37.1702 147.236 37.2002V44.1003C147.214 44.4085 147.266 44.7176 147.389 45.0011C147.52 45.2406 147.72 45.4345 147.964 45.557H145.109C145.322 45.4627 145.497 45.301 145.607 45.097C145.715 44.8089 145.767 44.5034 145.761 44.1961Z" fill="white"/>
<path d="M152.256 40.9761C152.253 40.2898 152.394 39.6107 152.672 38.9831C152.949 38.3554 153.356 37.7936 153.865 37.3343C154.866 36.4136 156.185 35.9186 157.544 35.9543C158.936 35.8898 160.303 36.3478 161.375 37.2385C161.894 37.6638 162.308 38.2035 162.584 38.8153C162.86 39.4271 162.99 40.0945 162.965 40.7652C162.995 42.1029 162.508 43.4006 161.605 44.3878C161.133 44.9054 160.555 45.3154 159.91 45.5899C159.266 45.8644 158.57 45.9969 157.869 45.9786C157.129 46.0077 156.39 45.8888 155.696 45.6288C155.002 45.3688 154.366 44.973 153.827 44.4644C153.33 44.0428 152.931 43.5169 152.66 42.924C152.388 42.3311 152.25 41.6857 152.256 41.0335V40.9761ZM153.904 40.9761C153.901 41.4897 154.001 41.9987 154.198 42.4728C154.396 42.947 154.686 43.3766 155.053 43.7361C155.409 44.1068 155.838 44.3989 156.313 44.5937C156.788 44.7884 157.299 44.8815 157.812 44.8669C158.318 44.8944 158.824 44.7948 159.282 44.5772C159.741 44.3596 160.137 44.031 160.437 43.6211C160.989 42.8813 161.272 41.9754 161.241 41.0527V40.5735C161.161 39.6304 160.77 38.7405 160.13 38.0435C159.802 37.6802 159.4 37.3926 158.95 37.2007C158.5 37.0087 158.013 36.917 157.525 36.9318C157.036 36.9131 156.549 36.9993 156.096 37.1844C155.643 37.3695 155.236 37.6494 154.9 38.0052C154.225 38.8284 153.883 39.8747 153.942 40.9377L153.904 40.9761Z" fill="white"/>
<path d="M164.554 43.8319V37.8902C164.595 37.5336 164.595 37.1734 164.554 36.8168C164.518 36.6702 164.449 36.5337 164.353 36.4174C164.257 36.3012 164.135 36.2084 163.998 36.146H166.757C166.635 36.2006 166.527 36.2799 166.438 36.3789C166.349 36.4779 166.281 36.5944 166.24 36.721C166.151 37.013 166.105 37.3166 166.106 37.6218V44.5219H167.159H168.213C168.596 44.5343 168.978 44.4825 169.343 44.3686C169.821 44.2006 170.268 43.9545 170.665 43.6403L169.918 45.557H163.902C164.037 45.5113 164.158 45.4332 164.255 45.3295C164.351 45.2259 164.421 45.0999 164.458 44.9628C164.495 44.6765 164.495 44.3866 164.458 44.1003L164.554 43.8319Z" fill="white"/>
<path d="M172.295 43.5827L174.767 37.3343C174.767 37.2385 174.767 37.1426 174.767 37.0085C174.783 36.9069 174.783 36.8034 174.767 36.7018C174.778 36.5733 174.742 36.445 174.664 36.3421C174.586 36.2393 174.472 36.1693 174.345 36.146H176.644L179.844 44.0428C179.957 44.362 180.111 44.665 180.303 44.9436C180.503 45.236 180.773 45.4733 181.089 45.6336H178.119C178.464 45.4995 178.618 45.3461 178.618 45.1544C178.61 44.9476 178.558 44.7448 178.464 44.5603L177.526 42.0877H173.886L173.023 44.4453V44.6944C173.017 44.7966 173.017 44.899 173.023 45.0011C173.038 45.1405 173.092 45.2731 173.177 45.3844C173.221 45.4492 173.278 45.5046 173.343 45.5474C173.409 45.5901 173.483 45.6195 173.56 45.6336H170.916C171.285 45.4342 171.59 45.1354 171.797 44.7711L172.295 43.5827ZM174.384 40.976H177.162L175.821 37.3343L174.384 40.976Z" fill="white"/>
<path d="M182.507 43.8894V37.7751C182.512 37.4569 182.467 37.1398 182.372 36.8359C182.242 36.5434 182.02 36.3012 181.74 36.1459H183.867C183.886 36.2668 183.939 36.3797 184.02 36.4718C184.109 36.5982 184.205 36.7198 184.307 36.8359L189.595 43.5252V37.7751C189.635 37.4826 189.635 37.186 189.595 36.8935C189.54 36.7224 189.45 36.5645 189.331 36.4294C189.213 36.2943 189.068 36.1848 188.905 36.1076H191.453C191.216 36.2469 191.018 36.4449 190.879 36.6826C190.719 37.0573 190.654 37.4652 190.687 37.871V46.0936C190.264 45.97 189.868 45.7685 189.518 45.4994C189.265 45.2603 189.028 45.0041 188.81 44.7327L183.618 38.1393V43.8894C183.59 44.2825 183.655 44.6766 183.809 45.0394C183.956 45.2663 184.152 45.4565 184.384 45.5953H181.817C182.082 45.4686 182.293 45.2509 182.411 44.9819C182.513 44.6274 182.546 44.2563 182.507 43.8894Z" fill="white"/>
<path d="M192.851 44.1769V37.4876C192.87 37.1714 192.811 36.8553 192.678 36.5676C192.631 36.4684 192.565 36.3798 192.482 36.3073C192.4 36.2347 192.304 36.1798 192.199 36.1459H195.801C196.526 36.0997 197.254 36.1979 197.941 36.4348C198.628 36.6717 199.262 37.0425 199.805 37.526C200.254 37.9853 200.605 38.5317 200.836 39.1315C201.066 39.7314 201.172 40.3721 201.146 41.0143C201.158 41.6074 201.047 42.1966 200.82 42.7444C200.592 43.2921 200.253 43.7865 199.824 44.1961C199.257 44.7144 198.592 45.1137 197.868 45.3705C197.144 45.6273 196.376 45.7363 195.609 45.6911H192.199C192.419 45.5533 192.592 45.3531 192.697 45.1161C192.827 44.8209 192.879 44.4979 192.851 44.1769ZM194.326 44.5219H194.824H195.341C196.315 44.5546 197.276 44.2942 198.1 43.7744C198.545 43.5066 198.909 43.1223 199.152 42.663C199.395 42.2036 199.508 41.6866 199.479 41.1677V40.8035C199.529 40.2322 199.438 39.6574 199.214 39.1294C198.991 38.6015 198.641 38.1365 198.196 37.7751C197.452 37.2542 196.555 36.9977 195.648 37.0468H194.996L194.402 37.3343L194.326 44.5219Z" fill="white"/>
</svg>
